<svg xmlns="http://www.w3.org/2000/svg" viewBox="0 0 64 64" id="brazil"><g fill="none" stroke="#000" stroke-linejoin="round" stroke-width="2" data-name="09-Brazil"><path d="M12 27.593 32 15l27 17-27 17L5 32l5-3.148"></path><path d="M22.48 28.93A10 10 0 0 1 42 32a9.463 9.463 0 0 1-.18 1.86 10 10 0 1 1-19.34-4.93Z"></path><path d="M26 28.647a26.107 26.107 0 0 0-3.52.283c-.16.02-.32.04-.48.07m20 5s-.06-.05-.18-.14A25.542 25.542 0 0 0 28 28.7"></path><path d="M55 63H5a4 4 0 0 1-4-4V5a4 4 0 0 1 4-4h2m6 0h46a4 4 0 0 1 4 4v54a4 4 0 0 1-4 4h-2M9 1h2M7 1"></path></g></svg>